# xmcd CD database file
#
# Track frame offsets:
#	150
#	13234
#	27680
#	40749
#	55286
#	69760
#	80323
#	94689
#	109256
#	132593
#	151226
#	164889
#	178702
#	193075
#	205217
#	218762
#	231147
#	244084
#	260139
#	286149
#	316122
#
# Disc length: 4645 seconds
#
# Revision: 0
# Processed by: cddbd v1.5.2PL0 Copyright (c) Steve Scherf et al.
# Submitted via: CDex 2.06
#
DISCID=31122315
DTITLE=Divers - Giants of Jazz - CD3 - Old masters and young lions
DYEAR=2012
DGENRE=Jazz
TTITLE0=Fletcher Anderson and his orchestra - Sugar fot stomp
TTITLE1=Jelly Roll Morton's Red Hot Peppers - Black bottom stomp
TTITLE2=Duke Ellington and his orchestra - East St Louis Toddle-on
TTITLE3=Bix Beiderbecke - I'm coming Virginia
TTITLE4=Louis Armstrong and his orchestra - West end blues
TTITLE5=Art Tatum - Tiger Ray
TTITLE6=Benny Goodman and his orchestra - King porter stomp
TTITLE7=Count Basie and his orchestra - Lester leaps in
TTITLE8=Artie Shaw - Everything is jumin'
TTITLE9=The Sidney Bechet Quintet - Summertime
TTITLE10=Coleman Hawkins - Body and soul
TTITLE11=Roy Elridge  and his orchestra - After you have gone
TTITLE12=Lionel Hampton  and his orchestra - Flying home
TTITLE13=The Dizzie Gillespie Sextet - Groovin' high
TTITLE14=Charlie Parker - Scrapple from the apple
TTITLE15=George Shearing - Lullaby of Birdland
TTITLE16=Johnny Hodges and his orchestra - Castle rock
TTITLE17=Quincy Jones and his orchestra - My Funny Valentine
TTITLE18=Lee Morgan - City lights
TTITLE19=Donald Byrd - Fuego
TTITLE20=Freddie Hubbard - Open Sesame
EXTD=YEAR: 2012
EXTT0=
EXTT1=
EXTT2=
EXTT3=
EXTT4=
EXTT5=
EXTT6=
EXTT7=
EXTT8=
EXTT9=
EXTT10=
EXTT11=
EXTT12=
EXTT13=
EXTT14=
EXTT15=
EXTT16=
EXTT17=
EXTT18=
EXTT19=
EXTT20=
PLAYORDER=
